<svg width="126" height="126" viewBox="0 0 126 126" fill="none" xmlns="http://www.w3.org/2000/svg">
<circle cx="63" cy="63" r="63" fill="white"/>
<path d="M26.2175 94.816C26.1215 95.12 25.9695 95.344 25.7615 95.488C25.5535 95.632 25.3215 95.704 25.0655 95.704C24.7455 95.704 24.4575 95.592 24.2015 95.368C23.9615 95.16 23.8415 94.888 23.8415 94.552C23.8415 94.408 23.8655 94.264 23.9135 94.12L29.4815 76.672C29.5775 76.368 29.7295 76.144 29.9375 76C30.1455 75.856 30.3775 75.784 30.6335 75.784C30.9535 75.784 31.2335 75.896 31.4735 76.12C31.7295 76.328 31.8575 76.6 31.8575 76.936C31.8575 77.08 31.8335 77.224 31.7855 77.368L26.2175 94.816ZM45.7032 81.976C46.9832 81.976 47.9592 82.36 48.6312 83.128C49.3192 83.88 49.6632 85.104 49.6632 86.8V92.704C49.6632 93.168 49.5192 93.528 49.2312 93.784C48.9592 94.024 48.5992 94.144 48.1512 94.144C47.7192 94.144 47.3592 94.024 47.0712 93.784C46.7992 93.528 46.6632 93.168 46.6632 92.704V86.8C46.6632 85.92 46.5032 85.296 46.1832 84.928C45.8792 84.544 45.4072 84.352 44.7672 84.352C43.9832 84.352 43.3592 84.624 42.8952 85.168C42.4312 85.696 42.1992 86.424 42.1992 87.352V92.704C42.1992 93.168 42.0552 93.528 41.7672 93.784C41.4952 94.024 41.1432 94.144 40.7112 94.144C40.2792 94.144 39.9192 94.024 39.6312 93.784C39.3432 93.528 39.1992 93.168 39.1992 92.704V86.8C39.1992 85.92 39.0392 85.296 38.7192 84.928C38.4152 84.544 37.9432 84.352 37.3032 84.352C36.5192 84.352 35.8952 84.624 35.4312 85.168C34.9832 85.696 34.7592 86.424 34.7592 87.352V92.704C34.7592 93.168 34.6152 93.528 34.3272 93.784C34.0392 94.024 33.6792 94.144 33.2472 94.144C32.8152 94.144 32.4552 94.024 32.1672 93.784C31.8952 93.528 31.7592 93.168 31.7592 92.704V83.416C31.7592 82.968 31.9032 82.624 32.1912 82.384C32.4792 82.144 32.8392 82.024 33.2712 82.024C33.6872 82.024 34.0232 82.144 34.2792 82.384C34.5512 82.608 34.6872 82.936 34.6872 83.368V83.944C35.0552 83.304 35.5432 82.816 36.1512 82.48C36.7752 82.144 37.4872 81.976 38.2872 81.976C40.0472 81.976 41.2232 82.712 41.8152 84.184C42.1672 83.512 42.6872 82.976 43.3752 82.576C44.0632 82.176 44.8392 81.976 45.7032 81.976ZM58.0643 94.192C56.8643 94.192 55.8083 93.944 54.8963 93.448C54.0003 92.952 53.3043 92.24 52.8083 91.312C52.3123 90.384 52.0643 89.304 52.0643 88.072C52.0643 86.84 52.3123 85.768 52.8083 84.856C53.3043 83.928 54.0003 83.216 54.8963 82.72C55.8083 82.224 56.8643 81.976 58.0643 81.976C59.2643 81.976 60.3123 82.224 61.2083 82.72C62.1203 83.216 62.8163 83.928 63.2963 84.856C63.7923 85.768 64.0403 86.84 64.0403 88.072C64.0403 89.304 63.7923 90.384 63.2963 91.312C62.8163 92.24 62.1203 92.952 61.2083 93.448C60.3123 93.944 59.2643 94.192 58.0643 94.192ZM58.0403 91.864C59.0163 91.864 59.7603 91.544 60.2723 90.904C60.7843 90.264 61.0403 89.32 61.0403 88.072C61.0403 86.84 60.7843 85.904 60.2723 85.264C59.7603 84.608 59.0243 84.28 58.0643 84.28C57.1043 84.28 56.3603 84.608 55.8323 85.264C55.3203 85.904 55.0643 86.84 55.0643 88.072C55.0643 89.32 55.3203 90.264 55.8323 90.904C56.3443 91.544 57.0803 91.864 58.0403 91.864ZM73.333 81.976C74.741 81.976 75.789 82.376 76.477 83.176C77.165 83.976 77.509 85.184 77.509 86.8V92.704C77.509 93.152 77.373 93.504 77.101 93.76C76.845 94.016 76.485 94.144 76.021 94.144C75.557 94.144 75.189 94.016 74.917 93.76C74.645 93.504 74.509 93.152 74.509 92.704V86.968C74.509 86.056 74.333 85.392 73.981 84.976C73.645 84.56 73.109 84.352 72.373 84.352C71.509 84.352 70.813 84.624 70.285 85.168C69.773 85.712 69.517 86.44 69.517 87.352V92.704C69.517 93.152 69.381 93.504 69.109 93.76C68.837 94.016 68.469 94.144 68.005 94.144C67.541 94.144 67.173 94.016 66.901 93.76C66.645 93.504 66.517 93.152 66.517 92.704V83.416C66.517 83 66.653 82.664 66.925 82.408C67.197 82.152 67.565 82.024 68.029 82.024C68.445 82.024 68.781 82.152 69.037 82.408C69.309 82.648 69.445 82.968 69.445 83.368V84.016C69.845 83.36 70.381 82.856 71.053 82.504C71.725 82.152 72.485 81.976 73.333 81.976ZM86.6521 91.912C87.4521 91.96 87.8521 92.32 87.8521 92.992C87.8521 93.376 87.6921 93.672 87.3721 93.88C87.0681 94.072 86.6281 94.152 86.0521 94.12L85.4041 94.072C82.7161 93.88 81.3721 92.44 81.3721 89.752V84.52H80.1721C79.7401 84.52 79.4041 84.424 79.1641 84.232C78.9401 84.04 78.8281 83.76 78.8281 83.392C78.8281 83.024 78.9401 82.744 79.1641 82.552C79.4041 82.36 79.7401 82.264 80.1721 82.264H81.3721V80.056C81.3721 79.624 81.5081 79.28 81.7801 79.024C82.0521 78.768 82.4201 78.64 82.8841 78.64C83.3321 78.64 83.6921 78.768 83.9641 79.024C84.2361 79.28 84.3721 79.624 84.3721 80.056V82.264H86.4121C86.8441 82.264 87.1721 82.36 87.3961 82.552C87.6361 82.744 87.7561 83.024 87.7561 83.392C87.7561 83.76 87.6361 84.04 87.3961 84.232C87.1721 84.424 86.8441 84.52 86.4121 84.52H84.3721V89.968C84.3721 91.152 84.9161 91.784 86.0041 91.864L86.6521 91.912ZM96.2795 81.976C99.0315 81.976 100.407 83.584 100.407 86.8V92.704C100.407 93.152 100.271 93.504 99.9995 93.76C99.7435 94.016 99.3835 94.144 98.9195 94.144C98.4555 94.144 98.0875 94.016 97.8155 93.76C97.5435 93.504 97.4075 93.152 97.4075 92.704V86.8C97.4075 85.952 97.2315 85.336 96.8795 84.952C96.5435 84.552 96.0075 84.352 95.2715 84.352C94.4075 84.352 93.7115 84.624 93.1835 85.168C92.6715 85.712 92.4155 86.44 92.4155 87.352V92.704C92.4155 93.152 92.2795 93.504 92.0075 93.76C91.7355 94.016 91.3675 94.144 90.9035 94.144C90.4395 94.144 90.0715 94.016 89.7995 93.76C89.5435 93.504 89.4155 93.152 89.4155 92.704V78.352C89.4155 77.936 89.5515 77.6 89.8235 77.344C90.1115 77.088 90.4795 76.96 90.9275 76.96C91.3755 76.96 91.7355 77.08 92.0075 77.32C92.2795 77.56 92.4155 77.888 92.4155 78.304V83.896C92.8155 83.272 93.3435 82.8 93.9995 82.48C94.6715 82.144 95.4315 81.976 96.2795 81.976Z" fill="#2996FD"/>
<path d="M23.535 62.36C24.935 62.36 25.635 62.955 25.635 64.145C25.635 65.3817 24.935 66 23.535 66H11.705C10.2817 66 9.57 65.3817 9.57 64.145C9.57 62.955 10.2817 62.36 11.705 62.36H15.345V46.4L11.985 48.465C11.6583 48.6517 11.3667 48.745 11.11 48.745C10.62 48.745 10.2 48.535 9.85 48.115C9.52333 47.695 9.36 47.2283 9.36 46.715C9.36 46.0383 9.66333 45.5133 10.27 45.14L15.695 41.78C16.395 41.36 17.06 41.15 17.69 41.15C18.3433 41.15 18.8683 41.3483 19.265 41.745C19.6617 42.1417 19.86 42.69 19.86 43.39V62.36H23.535ZM38.7813 50.215C40.3213 50.215 41.6747 50.5533 42.8413 51.23C44.0313 51.8833 44.953 52.805 45.6063 53.995C46.2597 55.185 46.5863 56.55 46.5863 58.09C46.5863 59.7 46.213 61.1233 45.4663 62.36C44.743 63.5967 43.7047 64.565 42.3513 65.265C41.0213 65.9417 39.4813 66.28 37.7313 66.28C36.2847 66.28 34.8613 66.0467 33.4613 65.58C32.0847 65.09 30.9063 64.4367 29.9263 63.62C29.3897 63.1533 29.1213 62.605 29.1213 61.975C29.1213 61.4617 29.2613 61.03 29.5413 60.68C29.8447 60.3067 30.1947 60.12 30.5913 60.12C30.8247 60.12 31.0463 60.1667 31.2563 60.26C31.4663 60.33 31.7113 60.4583 31.9913 60.645C32.9247 61.2983 33.8347 61.8 34.7213 62.15C35.608 62.5 36.553 62.675 37.5563 62.675C39.0963 62.675 40.2747 62.29 41.0913 61.52C41.908 60.75 42.3163 59.6533 42.3163 58.23C42.3163 56.8533 41.8963 55.7683 41.0563 54.975C40.2397 54.1583 39.108 53.75 37.6613 53.75C36.7513 53.75 35.9347 53.8783 35.2113 54.135C34.5113 54.3917 33.788 54.8233 33.0413 55.43C32.598 55.7333 32.143 55.885 31.6763 55.885C31.2097 55.885 30.813 55.745 30.4863 55.465C30.1597 55.185 29.9963 54.8117 29.9963 54.345V43.425C29.9963 42.7717 30.183 42.2583 30.5563 41.885C30.9297 41.5117 31.4547 41.325 32.1313 41.325H43.7863C45.1863 41.325 45.8863 41.9083 45.8863 43.075C45.8863 44.2417 45.1863 44.825 43.7863 44.825H34.4063V51.475C35.5963 50.635 37.0547 50.215 38.7813 50.215ZM52.2427 60.96C53.036 60.96 53.6777 61.2517 54.1677 61.835C54.6577 62.4183 54.9027 63.27 54.9027 64.39C54.9027 66.6067 54.1327 68.52 52.5927 70.13C52.2893 70.4333 51.9627 70.585 51.6127 70.585C51.2627 70.585 50.9593 70.4683 50.7027 70.235C50.446 70.0017 50.3177 69.7217 50.3177 69.395C50.3177 69.115 50.4343 68.8467 50.6677 68.59C51.3677 67.8433 51.8227 67.0033 52.0327 66.07C51.356 66 50.796 65.7433 50.3527 65.3C49.9327 64.8333 49.7227 64.2617 49.7227 63.585C49.7227 62.8383 49.956 62.22 50.4227 61.73C50.9127 61.2167 51.5193 60.96 52.2427 60.96ZM67.1543 66.315C64.2376 66.315 62.0093 65.2417 60.4693 63.095C58.9293 60.925 58.1593 57.775 58.1593 53.645C58.1593 49.5383 58.9293 46.4117 60.4693 44.265C62.0093 42.095 64.2376 41.01 67.1543 41.01C70.071 41.01 72.2993 42.095 73.8393 44.265C75.3793 46.4117 76.1493 49.5383 76.1493 53.645C76.1493 57.7517 75.3793 60.89 73.8393 63.06C72.2993 65.23 70.071 66.315 67.1543 66.315ZM67.1543 62.78C68.741 62.78 69.896 62.0567 70.6193 60.61C71.3426 59.14 71.7043 56.8183 71.7043 53.645C71.7043 50.4483 71.3426 48.1383 70.6193 46.715C69.896 45.2683 68.741 44.545 67.1543 44.545C65.5676 44.545 64.4126 45.2683 63.6893 46.715C62.966 48.1617 62.6043 50.4717 62.6043 53.645C62.6043 56.8183 62.966 59.14 63.6893 60.61C64.4126 62.0567 65.5676 62.78 67.1543 62.78ZM88.1406 66.315C85.224 66.315 82.9956 65.2417 81.4556 63.095C79.9156 60.925 79.1456 57.775 79.1456 53.645C79.1456 49.5383 79.9156 46.4117 81.4556 44.265C82.9956 42.095 85.224 41.01 88.1406 41.01C91.0573 41.01 93.2856 42.095 94.8256 44.265C96.3656 46.4117 97.1356 49.5383 97.1356 53.645C97.1356 57.7517 96.3656 60.89 94.8256 63.06C93.2856 65.23 91.0573 66.315 88.1406 66.315ZM88.1406 62.78C89.7273 62.78 90.8823 62.0567 91.6056 60.61C92.329 59.14 92.6906 56.8183 92.6906 53.645C92.6906 50.4483 92.329 48.1383 91.6056 46.715C90.8823 45.2683 89.7273 44.545 88.1406 44.545C86.554 44.545 85.399 45.2683 84.6756 46.715C83.9523 48.1617 83.5906 50.4717 83.5906 53.645C83.5906 56.8183 83.9523 59.14 84.6756 60.61C85.399 62.0567 86.554 62.78 88.1406 62.78ZM109.127 66.315C106.21 66.315 103.982 65.2417 102.442 63.095C100.902 60.925 100.132 57.775 100.132 53.645C100.132 49.5383 100.902 46.4117 102.442 44.265C103.982 42.095 106.21 41.01 109.127 41.01C112.044 41.01 114.272 42.095 115.812 44.265C117.352 46.4117 118.122 49.5383 118.122 53.645C118.122 57.7517 117.352 60.89 115.812 63.06C114.272 65.23 112.044 66.315 109.127 66.315ZM109.127 62.78C110.714 62.78 111.869 62.0567 112.592 60.61C113.315 59.14 113.677 56.8183 113.677 53.645C113.677 50.4483 113.315 48.1383 112.592 46.715C111.869 45.2683 110.714 44.545 109.127 44.545C107.54 44.545 106.385 45.2683 105.662 46.715C104.939 48.1617 104.577 50.4717 104.577 53.645C104.577 56.8183 104.939 59.14 105.662 60.61C106.385 62.0567 107.54 62.78 109.127 62.78Z" fill="#2996FD"/>
</svg>
