<svg width="529" height="56" viewBox="0 0 529 56" fill="none" xmlns="http://www.w3.org/2000/svg">
<circle cx="6" cy="28" r="6" fill="#2996FD"/>
<circle cx="28" cy="28" r="4" stroke="#2996FD"/>
<circle cx="48" cy="28" r="4" stroke="#2996FD"/>
<rect x="408" y="1" width="54" height="54" rx="5" stroke="#2996FD" stroke-width="2"/>
<rect x="474" y="1" width="54" height="54" rx="5" stroke="#2996FD" stroke-width="2"/>
<path d="M441 38.96L441 36.9551C441 36.8187 440.937 36.6904 440.832 36.6102L430.889 29.0157L440.832 21.4211C440.937 21.3409 441 21.2126 441 21.0763L441 19.0714C441 18.8976 440.812 18.796 440.678 18.8976L428.335 28.3233C427.888 28.6655 427.888 29.3659 428.335 29.7054L440.678 39.1311C440.812 39.2353 441 39.1337 441 38.96Z" fill="#2996FD"/>
<path d="M495 19.0703L495 21.0752C495 21.2115 495.063 21.3398 495.168 21.42L505.111 29.0146L495.168 36.6092C495.063 36.6894 495 36.8177 495 36.954L495 38.9589C495 39.1327 495.188 39.2342 495.322 39.1327L507.665 29.707C508.112 29.3648 508.112 28.6644 507.665 28.3249L495.322 18.8992C495.188 18.795 495 18.8965 495 19.0703Z" fill="#2996FD"/>
</svg>
