<svg width="36" height="26" viewBox="0 0 36 26" fill="none" xmlns="http://www.w3.org/2000/svg">
<path d="M35.5 23.5088C35.5 24.4713 34.7195 25.25 33.7587 25.25H19.7412C19.2794 25.25 18.8365 25.0666 18.51 24.74C18.1835 24.4135 18 23.9706 18 23.5088C18 23.047 18.1835 22.6041 18.51 22.2775C18.8365 21.951 19.2794 21.7675 19.7412 21.7675H33.7587C34.7212 21.7675 35.5 22.5463 35.5 23.5088Z" fill="#FAFCFF"/>
<path d="M35.5 13C35.5 13.9625 34.7195 14.7413 33.7587 14.7413H2.24125C1.77944 14.7413 1.33655 14.5578 1.01 14.2313C0.683453 13.9047 0.5 13.4618 0.5 13C0.5 12.5382 0.683453 12.0953 1.01 11.7688C1.33655 11.4422 1.77944 11.2588 2.24125 11.2588H33.7587C34.7212 11.2588 35.5 12.0393 35.5 13Z" fill="#FAFCFF"/>
<path d="M33.7587 4.2325C34.2206 4.2325 34.6635 4.04905 34.99 3.7225C35.3165 3.39595 35.5 2.95306 35.5 2.49125C35.5 2.02944 35.3165 1.58655 34.99 1.26C34.6635 0.933452 34.2206 0.75 33.7587 0.75H12.7412C12.5126 0.75 12.2862 0.795039 12.0749 0.882545C11.8636 0.970051 11.6717 1.09831 11.51 1.26C11.3483 1.42169 11.2201 1.61364 11.1325 1.8249C11.045 2.03616 11 2.26259 11 2.49125C11 2.71991 11.045 2.94634 11.1325 3.1576C11.2201 3.36886 11.3483 3.56081 11.51 3.7225C11.6717 3.88419 11.8636 4.01245 12.0749 4.09996C12.2862 4.18746 12.5126 4.2325 12.7412 4.2325H33.7587Z" fill="#FAFCFF"/>
</svg>
