<svg width="126" height="126" viewBox="0 0 126 126" fill="none" xmlns="http://www.w3.org/2000/svg">
<circle cx="63" cy="63" r="63" fill="#2996FD"/>
<path d="M26.2175 94.816C26.1215 95.12 25.9695 95.344 25.7615 95.488C25.5535 95.632 25.3215 95.704 25.0655 95.704C24.7455 95.704 24.4575 95.592 24.2015 95.368C23.9615 95.16 23.8415 94.888 23.8415 94.552C23.8415 94.408 23.8655 94.264 23.9135 94.12L29.4815 76.672C29.5775 76.368 29.7295 76.144 29.9375 76C30.1455 75.856 30.3775 75.784 30.6335 75.784C30.9535 75.784 31.2335 75.896 31.4735 76.12C31.7295 76.328 31.8575 76.6 31.8575 76.936C31.8575 77.08 31.8335 77.224 31.7855 77.368L26.2175 94.816ZM45.7032 81.976C46.9832 81.976 47.9592 82.36 48.6312 83.128C49.3192 83.88 49.6632 85.104 49.6632 86.8V92.704C49.6632 93.168 49.5192 93.528 49.2312 93.784C48.9592 94.024 48.5992 94.144 48.1512 94.144C47.7192 94.144 47.3592 94.024 47.0712 93.784C46.7992 93.528 46.6632 93.168 46.6632 92.704V86.8C46.6632 85.92 46.5032 85.296 46.1832 84.928C45.8792 84.544 45.4072 84.352 44.7672 84.352C43.9832 84.352 43.3592 84.624 42.8952 85.168C42.4312 85.696 42.1992 86.424 42.1992 87.352V92.704C42.1992 93.168 42.0552 93.528 41.7672 93.784C41.4952 94.024 41.1432 94.144 40.7112 94.144C40.2792 94.144 39.9192 94.024 39.6312 93.784C39.3432 93.528 39.1992 93.168 39.1992 92.704V86.8C39.1992 85.92 39.0392 85.296 38.7192 84.928C38.4152 84.544 37.9432 84.352 37.3032 84.352C36.5192 84.352 35.8952 84.624 35.4312 85.168C34.9832 85.696 34.7592 86.424 34.7592 87.352V92.704C34.7592 93.168 34.6152 93.528 34.3272 93.784C34.0392 94.024 33.6792 94.144 33.2472 94.144C32.8152 94.144 32.4552 94.024 32.1672 93.784C31.8952 93.528 31.7592 93.168 31.7592 92.704V83.416C31.7592 82.968 31.9032 82.624 32.1912 82.384C32.4792 82.144 32.8392 82.024 33.2712 82.024C33.6872 82.024 34.0232 82.144 34.2792 82.384C34.5512 82.608 34.6872 82.936 34.6872 83.368V83.944C35.0552 83.304 35.5432 82.816 36.1512 82.48C36.7752 82.144 37.4872 81.976 38.2872 81.976C40.0472 81.976 41.2232 82.712 41.8152 84.184C42.1672 83.512 42.6872 82.976 43.3752 82.576C44.0632 82.176 44.8392 81.976 45.7032 81.976ZM58.0643 94.192C56.8643 94.192 55.8083 93.944 54.8963 93.448C54.0003 92.952 53.3043 92.24 52.8083 91.312C52.3123 90.384 52.0643 89.304 52.0643 88.072C52.0643 86.84 52.3123 85.768 52.8083 84.856C53.3043 83.928 54.0003 83.216 54.8963 82.72C55.8083 82.224 56.8643 81.976 58.0643 81.976C59.2643 81.976 60.3123 82.224 61.2083 82.72C62.1203 83.216 62.8163 83.928 63.2963 84.856C63.7923 85.768 64.0403 86.84 64.0403 88.072C64.0403 89.304 63.7923 90.384 63.2963 91.312C62.8163 92.24 62.1203 92.952 61.2083 93.448C60.3123 93.944 59.2643 94.192 58.0643 94.192ZM58.0403 91.864C59.0163 91.864 59.7603 91.544 60.2723 90.904C60.7843 90.264 61.0403 89.32 61.0403 88.072C61.0403 86.84 60.7843 85.904 60.2723 85.264C59.7603 84.608 59.0243 84.28 58.0643 84.28C57.1043 84.28 56.3603 84.608 55.8323 85.264C55.3203 85.904 55.0643 86.84 55.0643 88.072C55.0643 89.32 55.3203 90.264 55.8323 90.904C56.3443 91.544 57.0803 91.864 58.0403 91.864ZM73.333 81.976C74.741 81.976 75.789 82.376 76.477 83.176C77.165 83.976 77.509 85.184 77.509 86.8V92.704C77.509 93.152 77.373 93.504 77.101 93.76C76.845 94.016 76.485 94.144 76.021 94.144C75.557 94.144 75.189 94.016 74.917 93.76C74.645 93.504 74.509 93.152 74.509 92.704V86.968C74.509 86.056 74.333 85.392 73.981 84.976C73.645 84.56 73.109 84.352 72.373 84.352C71.509 84.352 70.813 84.624 70.285 85.168C69.773 85.712 69.517 86.44 69.517 87.352V92.704C69.517 93.152 69.381 93.504 69.109 93.76C68.837 94.016 68.469 94.144 68.005 94.144C67.541 94.144 67.173 94.016 66.901 93.76C66.645 93.504 66.517 93.152 66.517 92.704V83.416C66.517 83 66.653 82.664 66.925 82.408C67.197 82.152 67.565 82.024 68.029 82.024C68.445 82.024 68.781 82.152 69.037 82.408C69.309 82.648 69.445 82.968 69.445 83.368V84.016C69.845 83.36 70.381 82.856 71.053 82.504C71.725 82.152 72.485 81.976 73.333 81.976ZM86.6521 91.912C87.4521 91.96 87.8521 92.32 87.8521 92.992C87.8521 93.376 87.6921 93.672 87.3721 93.88C87.0681 94.072 86.6281 94.152 86.0521 94.12L85.4041 94.072C82.7161 93.88 81.3721 92.44 81.3721 89.752V84.52H80.1721C79.7401 84.52 79.4041 84.424 79.1641 84.232C78.9401 84.04 78.8281 83.76 78.8281 83.392C78.8281 83.024 78.9401 82.744 79.1641 82.552C79.4041 82.36 79.7401 82.264 80.1721 82.264H81.3721V80.056C81.3721 79.624 81.5081 79.28 81.7801 79.024C82.0521 78.768 82.4201 78.64 82.8841 78.64C83.3321 78.64 83.6921 78.768 83.9641 79.024C84.2361 79.28 84.3721 79.624 84.3721 80.056V82.264H86.4121C86.8441 82.264 87.1721 82.36 87.3961 82.552C87.6361 82.744 87.7561 83.024 87.7561 83.392C87.7561 83.76 87.6361 84.04 87.3961 84.232C87.1721 84.424 86.8441 84.52 86.4121 84.52H84.3721V89.968C84.3721 91.152 84.9161 91.784 86.0041 91.864L86.6521 91.912ZM96.2795 81.976C99.0315 81.976 100.407 83.584 100.407 86.8V92.704C100.407 93.152 100.271 93.504 99.9995 93.76C99.7435 94.016 99.3835 94.144 98.9195 94.144C98.4555 94.144 98.0875 94.016 97.8155 93.76C97.5435 93.504 97.4075 93.152 97.4075 92.704V86.8C97.4075 85.952 97.2315 85.336 96.8795 84.952C96.5435 84.552 96.0075 84.352 95.2715 84.352C94.4075 84.352 93.7115 84.624 93.1835 85.168C92.6715 85.712 92.4155 86.44 92.4155 87.352V92.704C92.4155 93.152 92.2795 93.504 92.0075 93.76C91.7355 94.016 91.3675 94.144 90.9035 94.144C90.4395 94.144 90.0715 94.016 89.7995 93.76C89.5435 93.504 89.4155 93.152 89.4155 92.704V78.352C89.4155 77.936 89.5515 77.6 89.8235 77.344C90.1115 77.088 90.4795 76.96 90.9275 76.96C91.3755 76.96 91.7355 77.08 92.0075 77.32C92.2795 77.56 92.4155 77.888 92.4155 78.304V83.896C92.8155 83.272 93.3435 82.8 93.9995 82.48C94.6715 82.144 95.4315 81.976 96.2795 81.976Z" fill="#FAFCFF"/>
<path d="M28.795 50.215C30.335 50.215 31.6883 50.5533 32.855 51.23C34.045 51.8833 34.9667 52.805 35.62 53.995C36.2733 55.185 36.6 56.55 36.6 58.09C36.6 59.7 36.2267 61.1233 35.48 62.36C34.7567 63.5967 33.7183 64.565 32.365 65.265C31.035 65.9417 29.495 66.28 27.745 66.28C26.2983 66.28 24.875 66.0467 23.475 65.58C22.0983 65.09 20.92 64.4367 19.94 63.62C19.4033 63.1533 19.135 62.605 19.135 61.975C19.135 61.4617 19.275 61.03 19.555 60.68C19.8583 60.3067 20.2083 60.12 20.605 60.12C20.8383 60.12 21.06 60.1667 21.27 60.26C21.48 60.33 21.725 60.4583 22.005 60.645C22.9383 61.2983 23.8483 61.8 24.735 62.15C25.6217 62.5 26.5667 62.675 27.57 62.675C29.11 62.675 30.2883 62.29 31.105 61.52C31.9217 60.75 32.33 59.6533 32.33 58.23C32.33 56.8533 31.91 55.7683 31.07 54.975C30.2533 54.1583 29.1217 53.75 27.675 53.75C26.765 53.75 25.9483 53.8783 25.225 54.135C24.525 54.3917 23.8017 54.8233 23.055 55.43C22.6117 55.7333 22.1567 55.885 21.69 55.885C21.2233 55.885 20.8267 55.745 20.5 55.465C20.1733 55.185 20.01 54.8117 20.01 54.345V43.425C20.01 42.7717 20.1967 42.2583 20.57 41.885C20.9433 41.5117 21.4683 41.325 22.145 41.325H33.8C35.2 41.325 35.9 41.9083 35.9 43.075C35.9 44.2417 35.2 44.825 33.8 44.825H24.42V51.475C25.61 50.635 27.0683 50.215 28.795 50.215ZM42.2563 60.96C43.0497 60.96 43.6913 61.2517 44.1813 61.835C44.6713 62.4183 44.9163 63.27 44.9163 64.39C44.9163 66.6067 44.1463 68.52 42.6063 70.13C42.303 70.4333 41.9763 70.585 41.6263 70.585C41.2763 70.585 40.973 70.4683 40.7163 70.235C40.4597 70.0017 40.3313 69.7217 40.3313 69.395C40.3313 69.115 40.448 68.8467 40.6813 68.59C41.3813 67.8433 41.8363 67.0033 42.0463 66.07C41.3697 66 40.8097 65.7433 40.3663 65.3C39.9463 64.8333 39.7363 64.2617 39.7363 63.585C39.7363 62.8383 39.9697 62.22 40.4363 61.73C40.9263 61.2167 41.533 60.96 42.2563 60.96ZM57.168 66.315C54.2513 66.315 52.023 65.2417 50.483 63.095C48.943 60.925 48.173 57.775 48.173 53.645C48.173 49.5383 48.943 46.4117 50.483 44.265C52.023 42.095 54.2513 41.01 57.168 41.01C60.0846 41.01 62.313 42.095 63.853 44.265C65.393 46.4117 66.163 49.5383 66.163 53.645C66.163 57.7517 65.393 60.89 63.853 63.06C62.313 65.23 60.0846 66.315 57.168 66.315ZM57.168 62.78C58.7546 62.78 59.9096 62.0567 60.633 60.61C61.3563 59.14 61.718 56.8183 61.718 53.645C61.718 50.4483 61.3563 48.1383 60.633 46.715C59.9096 45.2683 58.7546 44.545 57.168 44.545C55.5813 44.545 54.4263 45.2683 53.703 46.715C52.9796 48.1617 52.618 50.4717 52.618 53.645C52.618 56.8183 52.9796 59.14 53.703 60.61C54.4263 62.0567 55.5813 62.78 57.168 62.78ZM78.1543 66.315C75.2376 66.315 73.0093 65.2417 71.4693 63.095C69.9293 60.925 69.1593 57.775 69.1593 53.645C69.1593 49.5383 69.9293 46.4117 71.4693 44.265C73.0093 42.095 75.2376 41.01 78.1543 41.01C81.071 41.01 83.2993 42.095 84.8393 44.265C86.3793 46.4117 87.1493 49.5383 87.1493 53.645C87.1493 57.7517 86.3793 60.89 84.8393 63.06C83.2993 65.23 81.071 66.315 78.1543 66.315ZM78.1543 62.78C79.741 62.78 80.896 62.0567 81.6193 60.61C82.3426 59.14 82.7043 56.8183 82.7043 53.645C82.7043 50.4483 82.3426 48.1383 81.6193 46.715C80.896 45.2683 79.741 44.545 78.1543 44.545C76.5676 44.545 75.4126 45.2683 74.6893 46.715C73.966 48.1617 73.6043 50.4717 73.6043 53.645C73.6043 56.8183 73.966 59.14 74.6893 60.61C75.4126 62.0567 76.5676 62.78 78.1543 62.78ZM99.1406 66.315C96.224 66.315 93.9956 65.2417 92.4556 63.095C90.9156 60.925 90.1456 57.775 90.1456 53.645C90.1456 49.5383 90.9156 46.4117 92.4556 44.265C93.9956 42.095 96.224 41.01 99.1406 41.01C102.057 41.01 104.286 42.095 105.826 44.265C107.366 46.4117 108.136 49.5383 108.136 53.645C108.136 57.7517 107.366 60.89 105.826 63.06C104.286 65.23 102.057 66.315 99.1406 66.315ZM99.1406 62.78C100.727 62.78 101.882 62.0567 102.606 60.61C103.329 59.14 103.691 56.8183 103.691 53.645C103.691 50.4483 103.329 48.1383 102.606 46.715C101.882 45.2683 100.727 44.545 99.1406 44.545C97.554 44.545 96.399 45.2683 95.6756 46.715C94.9523 48.1617 94.5906 50.4717 94.5906 53.645C94.5906 56.8183 94.9523 59.14 95.6756 60.61C96.399 62.0567 97.554 62.78 99.1406 62.78Z" fill="#FAFCFF"/>
</svg>
