<svg width="142" height="142" viewBox="0 0 142 142" fill="none" xmlns="http://www.w3.org/2000/svg">
<g clip-path="url(#clip0_439_170)">
<path d="M0.62114 68.7812C1.13362 67.0812 2.04669 65.5289 3.28365 64.255C4.22769 63.2365 5.43954 62.5044 6.7804 62.1427C6.12364 63.1811 5.52901 64.3792 5.08527 65.6572C4.58826 66.9619 4.26877 68.3552 4.17114 69.8019C4.02156 71.0517 4.02156 72.315 4.17114 73.5649C4.44798 72.6384 4.87363 71.7632 5.4314 70.9734C6.53046 69.488 7.99911 68.3162 9.69139 67.5742C11.5658 66.7301 13.6863 66.6094 15.6444 67.2354C17.6025 67.8613 19.2598 69.1896 20.297 70.9645C20.7408 71.6922 21.0958 72.4821 21.362 73.3253C31.8523 55.8593 50.7294 44.2951 72.3134 44.2951C73.4139 44.2951 74.5055 44.3217 75.5883 44.3839C82.2845 44.3964 88.9472 45.3311 95.3884 47.1618C95.9386 43.31 100.997 35.5 124.25 35.5L117.15 57.7763C121.615 61.3852 125.368 65.7944 128.217 70.7781L142 71C142 71 143.509 106.5 133.125 106.5H128.332C125.07 112.03 120.705 116.831 115.508 120.602L115.375 142H105.79C94.1636 142 88.7499 142 88.7499 135.344V131.882C79.798 133.541 70.6153 133.517 61.6723 131.812L62.1249 135.344C62.1249 142 56.6224 142 44.9074 142H35.4999V120.789C27.1779 115.019 21.1888 106.468 18.6108 96.6754C18.1049 96.4357 17.599 96.4624 17.0843 96.4624C16.5695 96.4624 16.0636 96.4358 15.5578 96.3736C13.3301 95.9654 11.2978 95.0956 9.53165 93.862C7.14465 92.1733 5.31786 89.8086 4.28651 87.0726C4.03801 86.2472 3.85164 85.3775 3.72739 84.4811L3.71851 84.3924C1.75714 82.0671 0.417007 79.1561 -0.000106812 75.9522C-0.362808 73.5041 -0.143906 71.0049 0.638885 68.657L0.62114 68.7812ZM110.849 68.7812C109.083 68.7812 107.39 69.4825 106.142 70.7308C104.894 71.9791 104.192 73.6722 104.192 75.4375C104.192 77.2028 104.894 78.8959 106.142 80.1442C107.39 81.3925 109.083 82.0938 110.849 82.0938C112.614 82.0938 114.307 81.3925 115.555 80.1442C116.804 78.8959 117.505 77.2028 117.505 75.4375C117.505 73.6722 116.804 71.9791 115.555 70.7308C114.307 69.4825 112.614 68.7812 110.849 68.7812ZM89.8149 62.125C90.8172 62.4465 91.9009 62.4027 92.874 62.0014C93.847 61.6002 94.6466 60.8674 95.131 59.9329C95.282 59.4672 95.3325 58.9748 95.2791 58.4882C95.2258 58.0016 95.0698 57.5319 94.8215 57.11C94.5733 56.6881 94.2383 56.3236 93.8389 56.0407C93.4394 55.7578 92.9844 55.5629 92.504 55.4688C86.6668 54.0691 80.676 53.413 74.6741 53.5163L73.7778 53.5074C67.8138 53.5074 62.0273 54.2174 56.4804 55.5664C55.3621 55.7794 54.1551 57.1816 54.1551 58.8679C54.1556 59.2266 54.2125 59.583 54.3238 59.924C54.6345 60.4994 55.0727 60.9961 55.605 61.3761C56.1372 61.756 56.7494 62.0092 57.3945 62.1161H58.7524C63.7104 60.9222 68.7935 60.3263 73.8931 60.3411H74.683C80.0524 60.3411 85.2709 60.989 90.2675 62.2138L89.8149 62.125ZM12.6024 88.1288C13.7999 88.9997 15.1712 89.6021 16.6228 89.8949L17.7499 89.9038V88.75V85.9987C16.2855 87.1081 14.4306 87.7738 12.4249 87.7738H12.2385L12.6024 88.1288ZM11.8924 82.0938C12.7174 82.2094 13.5577 82.0581 14.2906 81.6621C15.0235 81.2661 15.6106 80.6461 15.966 79.8927C16.3727 79.1177 16.5844 78.2553 16.5829 77.38C16.5814 76.5048 16.3666 75.6431 15.9571 74.8695C15.5352 74.2854 14.9139 73.8762 14.2107 73.7192C13.5075 73.5622 12.7712 73.6684 12.1409 74.0175C11.3367 74.3262 10.645 74.8714 10.157 75.5812C9.66896 76.291 9.40762 77.1321 9.40739 77.9935V78.0024C9.23203 79.233 9.23502 80.4824 9.41626 81.7121C10.2405 81.8709 11.0801 81.9364 11.919 81.9074L11.8924 82.0938Z" fill="#FDA000"/>
<path d="M71 26.6245H79.875V25.1158H77.6562V15.442H79.875L74.9937 10.5608H73.2188V25.1158H71V26.6245Z" fill="#FDA000"/>
<path d="M75.4375 6.65625C73.6887 6.65683 71.9571 7.00186 70.3417 7.67164C68.7262 8.34142 67.2585 9.32282 66.0223 10.5598C64.7861 11.7968 63.8057 13.2652 63.137 14.8811C62.4683 16.497 62.1244 18.2288 62.125 19.9776C62.1256 21.7264 62.4706 23.458 63.1404 25.0735C63.8102 26.6889 64.7916 28.1566 66.0286 29.3928C67.2656 30.629 68.734 31.6094 70.3499 32.2781C71.9658 32.9468 73.6976 33.2907 75.4464 33.2901C78.9782 33.2889 82.365 31.8848 84.8616 29.3865C87.3581 26.8883 88.7601 23.5006 88.7589 19.9688C88.7577 16.4369 87.3535 13.0501 84.8553 10.5536C82.3571 8.05697 78.9694 6.65507 75.4375 6.65625ZM75.4375 0C80.7335 0 85.8127 2.10384 89.5575 5.84871C93.3024 9.59358 95.4062 14.6727 95.4062 19.9688C95.4062 25.2648 93.3024 30.3439 89.5575 34.0888C85.8127 37.8337 80.7335 39.9375 75.4375 39.9375C70.1415 39.9375 65.0623 37.8337 61.3175 34.0888C57.5726 30.3439 55.4688 25.2648 55.4688 19.9688C55.4688 14.6727 57.5726 9.59358 61.3175 5.84871C65.0623 2.10384 70.1415 0 75.4375 0V0Z" fill="#FDA000"/>
</g>
<defs>
<clipPath id="clip0_439_170">
<rect width="142" height="142" fill="white" transform="matrix(-1 0 0 1 142 0)"/>
</clipPath>
</defs>
</svg>
