<svg width="18" height="18" viewBox="0 0 18 18" fill="none" xmlns="http://www.w3.org/2000/svg">
<path d="M14.229 0.644473L8.99999 5.87375C7.25708 4.13141 5.51361 2.38738 3.77043 0.644473C1.75386 -1.37209 -1.37195 1.75485 0.642925 3.77197C2.38639 5.51375 4.13042 7.25807 5.87193 9.00097C4.12963 10.7447 2.38663 12.4877 0.642925 14.23C-1.37195 16.246 1.75414 19.3721 3.77043 17.3575C5.51333 15.614 7.2568 13.8703 8.99971 12.1279L14.2287 17.3575C16.2453 19.3735 19.3719 16.2463 17.3562 14.23C15.6127 12.4865 13.8698 10.7436 12.1258 9.00041C13.8695 7.25694 15.6125 5.51347 17.3562 3.77029C19.3722 1.75485 16.2456 -1.37209 14.2287 0.645598" fill="#FE3B43"/>
</svg>
