<svg width="20" height="17" viewBox="0 0 20 17" fill="none" xmlns="http://www.w3.org/2000/svg">
<path d="M18.9344 0.710335C18.7131 0.55549 18.4634 0.445761 18.1997 0.387416C17.936 0.329071 17.6634 0.323253 17.3974 0.370294C17.1314 0.417335 16.8774 0.516314 16.6496 0.661576C16.4219 0.806839 16.2251 0.995539 16.0703 1.2169L8.25157 12.3831L3.12501 8.88127C2.71384 8.60002 2.20778 8.49362 1.71817 8.58548C1.22855 8.67735 0.795481 8.95995 0.514227 9.37112C0.232974 9.78228 0.126575 10.2883 0.218439 10.778C0.310302 11.2676 0.592903 11.7006 1.00407 11.9819L7.87595 16.6756C8.08759 16.8201 8.32678 16.9194 8.57853 16.9672C8.83029 17.015 9.0892 17.0103 9.33907 16.9535C9.60559 16.9069 9.86029 16.8081 10.0886 16.6629C10.3169 16.5177 10.5142 16.3289 10.6694 16.1072L19.4413 3.57596C19.7539 3.12849 19.8761 2.57521 19.781 2.0377C19.6859 1.50019 19.3813 1.02243 18.9341 0.709397" fill="#4AF787"/>
</svg>
