<svg width="25" height="5" viewBox="0 0 25 5" fill="none" xmlns="http://www.w3.org/2000/svg">
<path d="M22.7587 4.2325C23.2206 4.2325 23.6635 4.04905 23.99 3.7225C24.3165 3.39595 24.5 2.95306 24.5 2.49125C24.5 2.02944 24.3165 1.58655 23.99 1.26C23.6635 0.933452 23.2206 0.75 22.7587 0.75H1.74125C1.51259 0.75 1.28616 0.795039 1.0749 0.882545C0.863645 0.970051 0.67169 1.09831 0.51 1.26C0.34831 1.42169 0.220051 1.61364 0.132545 1.8249C0.0450388 2.03616 0 2.26259 0 2.49125C0 2.71991 0.0450388 2.94634 0.132545 3.1576C0.220051 3.36886 0.34831 3.56081 0.51 3.7225C0.67169 3.88419 0.863645 4.01245 1.0749 4.09996C1.28616 4.18746 1.51259 4.2325 1.74125 4.2325H22.7587Z" fill="#FAFCFF"/>
</svg>
